<svg width="462.3329345703125px" height="93.92000274658203px" xmlns="http://www.w3.org/2000/svg" viewBox="18.833532714843756 28.039998626708986 462.3329345703125 93.92000274658203" style="background: rgba(0, 0, 0, 0);" preserveAspectRatio="xMidYMid"><defs><linearGradient id="editing-outline-gradient" x1="-0.41354545764260087" x2="1.4135454576426008" y1="0.09326335692419985" y2="0.9067366430758002"><stop offset="0" stop-color="#ee4208"></stop><stop offset="1" stop-color="#4139ff"></stop></linearGradient><filter id="editing-outline" x="-100%" y="-100%" width="300%" height="300%"><feMorphology in="SourceGraphic" operator="dilate" radius="1" result="outline"></feMorphology><feComposite operator="out" in="outline" in2="SourceAlpha"></feComposite></filter></defs><g filter="url(#editing-outline)"><g transform="translate(88.11608764529228, 92.62500381469727)"><path d="M22.18-24.91L22.18-24.91L22.18-24.91Q18.38-24.91 15.60-26.18L15.60-26.18L14.10-18.57L23.17-18.57L23.17-18.57Q23.17-16.07 21.93-14.50L21.93-14.50L21.93-14.50Q20.68-12.93 18.42-12.93L18.42-12.93L18.42-12.93Q15.98-12.93 13.72-13.82L13.72-13.82L13.72-13.82Q13.25-14.01 13.21-14.05L13.21-14.05L10.53 0L0.28 0L6.25-31.02L27.21-31.02L27.21-31.02Q27.21-28.15 25.87-26.53L25.87-26.53L25.87-26.53Q24.53-24.91 22.18-24.91ZM27.75-1.41L27.75-1.41L27.75-1.41Q26.65-2.63 26.16-4.56L26.16-4.56L26.16-4.56Q25.66-6.49 25.66-9.63L25.66-9.63L25.66-9.63Q25.66-12.78 26.74-15.65L26.74-15.65L26.74-15.65Q27.82-18.52 29.80-20.59L29.80-20.59L29.80-20.59Q33.84-24.91 40.51-24.91L40.51-24.91L40.51-24.91Q42.91-24.91 44.65-24.11L44.65-24.11L52.69-24.91L49.21-6.58L49.21-6.58Q49.07-6.02 49.07-4.98L49.07-4.98L49.07-4.98Q49.07-3.95 49.70-3.29L49.70-3.29L49.70-3.29Q50.34-2.63 51.28-2.54L51.28-2.54L51.28-2.54Q50.81-0.94 49.09 0L49.09 0L49.09 0Q47.38 0.94 45.45 0.94L45.45 0.94L45.45 0.94Q43.52 0.94 42.23 0.21L42.23 0.21L42.23 0.21Q40.94-0.52 40.56-1.74L40.56-1.74L40.56-1.74Q39.81-0.56 38.21 0.19L38.21 0.19L38.21 0.19Q36.61 0.94 34.47 0.94L34.47 0.94L34.47 0.94Q32.34 0.94 30.60 0.38L30.60 0.38L30.60 0.38Q28.86-0.19 27.75-1.41ZM37.67-20.49L37.67-20.49L37.67-20.49Q37.13-19.65 36.66-18.21L36.66-18.21L36.66-18.21Q36.19-16.78 35.41-12.95L35.41-12.95L35.41-12.95Q34.64-9.12 34.64-6.39L34.64-6.39L34.64-6.39Q34.64-3.67 35.06-2.87L35.06-2.87L35.06-2.87Q35.48-2.07 36.24-2.07L36.24-2.07L36.24-2.07Q37.74-2.07 38.85-3.50L38.85-3.50L38.85-3.50Q39.95-4.93 40.37-7.47L40.37-7.47L42.86-21.24L42.86-21.24Q41.88-22.09 40.73-22.09L40.73-22.09L40.73-22.09Q39.57-22.09 38.89-21.71L38.89-21.71L38.89-21.71Q38.21-21.34 37.67-20.49ZM66.50-2.58L66.50-2.58L66.50-2.58Q65.05 0.94 60.40 0.94L60.40 0.94L60.40 0.94Q58.00 0.94 56.49-0.70L56.49-0.70L56.49-0.70Q55.23-2.16 55.23-3.62L55.23-3.62L55.23-3.62Q55.23-7.43 56.96-14.85L56.96-14.85L58.70-23.97L68.24-24.91L65.38-10.06L65.38-10.06Q64.58-6.58 64.58-5.36L64.58-5.36L64.58-5.36Q64.58-2.68 66.50-2.58ZM59.55-30.50L59.55-30.50L59.55-30.50Q59.55-32.34 61.08-33.32L61.08-33.32L61.08-33.32Q62.60-34.31 64.81-34.31L64.81-34.31L64.81-34.31Q67.02-34.31 68.36-33.32L68.36-33.32L68.36-33.32Q69.70-32.34 69.70-30.50L69.70-30.50L69.70-30.50Q69.70-28.67 68.22-27.73L68.22-27.73L68.22-27.73Q66.74-26.79 64.53-26.79L64.53-26.79L64.53-26.79Q62.32-26.79 60.94-27.73L60.94-27.73L60.94-27.73Q59.55-28.67 59.55-30.50ZM79.55 0.47L79.55 0.47L79.55 0.47Q77.32 0 76.16-0.21L76.16-0.21L76.16-0.21Q75.01-0.42 73.67-0.42L73.67-0.42L73.67-0.42Q72.33-0.42 71.02 0.05L71.02 0.05L71.02 0.05Q70.31-0.38 69.87-1.22L69.87-1.22L69.87-1.22Q69.42-2.07 69.42-3.38L69.42-3.38L69.42-3.38Q69.42-6.16 72.24-8.27L72.24-8.27L84.18-16.87L84.18-16.87Q80.84-17.81 77.81-17.81L77.81-17.81L77.81-17.81Q74.78-17.81 73.70-15.74L73.70-15.74L73.70-15.74Q72.10-17.63 72.10-20.59L72.10-20.59L72.10-20.59Q72.10-22.56 73.53-23.85L73.53-23.85L73.53-23.85Q74.97-25.14 77.97-25.14L77.97-25.14L77.97-25.14Q79.67-25.14 81.19-24.93L81.19-24.93L81.19-24.93Q82.72-24.72 84.08-24.53L84.08-24.53L86.62-24.16L86.62-24.16Q87.84-23.97 89.09-23.97L89.09-23.97L89.09-23.97Q90.33-23.97 91.27-24.49L91.27-24.49L91.27-24.49Q92.50-23.36 92.50-21.81L92.50-21.81L92.50-21.81Q92.50-19.36 89.49-16.83L89.49-16.83L77.60-7.94L77.60-7.94Q81.26-6.86 83.14-6.86L83.14-6.86L83.14-6.86Q87.09-6.86 88.78-8.74L88.78-8.74L88.78-8.74Q90.10-7.24 90.10-4.63L90.10-4.63L90.10-4.63Q90.10-2.02 88.41-0.54L88.41-0.54L88.41-0.54Q86.72 0.94 83.66 0.94L83.66 0.94L83.66 0.94Q81.78 0.94 79.55 0.47ZM96.23-1.41L96.23-1.41L96.23-1.41Q95.13-2.63 94.63-4.56L94.63-4.56L94.63-4.56Q94.14-6.49 94.14-9.63L94.14-9.63L94.14-9.63Q94.14-12.78 95.22-15.65L95.22-15.65L95.22-15.65Q96.30-18.52 98.28-20.59L98.28-20.59L98.28-20.59Q102.32-24.91 108.99-24.91L108.99-24.91L108.99-24.91Q111.39-24.91 113.13-24.11L113.13-24.11L121.17-24.91L117.69-6.58L117.69-6.58Q117.55-6.02 117.55-4.98L117.55-4.98L117.55-4.98Q117.55-3.95 118.18-3.29L118.18-3.29L118.18-3.29Q118.82-2.63 119.76-2.54L119.76-2.54L119.76-2.54Q119.29-0.94 117.57 0L117.57 0L117.57 0Q115.86 0.94 113.93 0.94L113.93 0.94L113.93 0.94Q112.00 0.94 110.71 0.21L110.71 0.21L110.71 0.21Q109.42-0.52 109.04-1.74L109.04-1.74L109.04-1.74Q108.29-0.56 106.69 0.19L106.69 0.19L106.69 0.19Q105.09 0.94 102.95 0.94L102.95 0.94L102.95 0.94Q100.82 0.94 99.08 0.38L99.08 0.38L99.08 0.38Q97.34-0.19 96.23-1.41ZM106.15-20.49L106.15-20.49L106.15-20.49Q105.61-19.65 105.14-18.21L105.14-18.21L105.14-18.21Q104.67-16.78 103.89-12.95L103.89-12.95L103.89-12.95Q103.12-9.12 103.12-6.39L103.12-6.39L103.12-6.39Q103.12-3.67 103.54-2.87L103.54-2.87L103.54-2.87Q103.96-2.07 104.72-2.07L104.72-2.07L104.72-2.07Q106.22-2.07 107.32-3.50L107.32-3.50L107.32-3.50Q108.43-4.93 108.85-7.47L108.85-7.47L111.34-21.24L111.34-21.24Q110.36-22.09 109.20-22.09L109.20-22.09L109.20-22.09Q108.05-22.09 107.37-21.71L107.37-21.71L107.37-21.71Q106.69-21.34 106.15-20.49ZM143.59 0.94L143.59 0.94L143.59 0.94Q137.90 0.94 137.90-3.48L137.90-3.48L137.90-3.48Q137.95-4.70 138.32-6.77L138.32-6.77L139.17-11.09L139.17-11.09Q140.44-17.20 140.44-18.57L140.44-18.57L140.44-18.57Q140.44-21.29 138.84-21.29L138.84-21.29L138.84-21.29Q136.16-21.29 134.75-14.29L134.75-14.29L131.98 0L122.53 0.94L127.42-24.02L135.13-24.91L134.37-20.30L134.37-20.30Q136.58-24.91 143.35-24.91L143.35-24.91L143.35-24.91Q146.64-24.91 148.03-23.52L148.03-23.52L148.03-23.52Q149.41-22.14 149.41-19.04L149.41-19.04L149.41-19.04Q149.41-16.12 147.91-9.31L147.91-9.31L147.91-9.31Q147.20-6.25 147.20-5.10L147.20-5.10L147.20-5.10Q147.20-3.95 147.84-3.29L147.84-3.29L147.84-3.29Q148.47-2.63 149.41-2.54L149.41-2.54L149.41-2.54Q148.94-0.94 147.32 0L147.32 0L147.32 0Q145.70 0.94 143.59 0.94ZM181.89-15.13L191.38-15.98L191.38-15.98Q188-8.55 188 0.05L188 0.05L188 0.05Q186.73 0.94 184.87 0.94L184.87 0.94L184.87 0.94Q183.02 0.94 181.84 0.07L181.84 0.07L181.84 0.07Q180.67-0.80 180.43-1.69L180.43-1.69L180.43-1.69Q179.26-0.47 177.35 0.23L177.35 0.23L177.35 0.23Q175.45 0.94 173.43 0.94L173.43 0.94L173.43 0.94Q171.41 0.94 169.65 0.28L169.65 0.28L169.65 0.28Q167.88-0.38 166.52-1.83L166.52-1.83L166.52-1.83Q163.51-5.03 163.51-11.09L163.51-11.09L163.51-11.09Q163.51-20.49 168.54-26.13L168.54-26.13L168.54-26.13Q173.71-31.96 182.88-31.96L182.88-31.96L182.88-31.96Q189.22-31.96 191.48-28.67L191.48-28.67L191.48-28.67Q192.18-27.64 192.18-26.39L192.18-26.39L192.18-26.39Q192.18-25.14 191.64-24.09L191.64-24.09L191.64-24.09Q191.10-23.03 190.26-22.18L190.26-22.18L190.26-22.18Q188.24-20.30 185.74-20.30L185.74-20.30L185.74-20.30Q184.76-20.30 183.82-20.63L183.82-20.63L183.82-20.63Q184.01-22.04 184.01-23.69L184.01-23.69L184.01-23.69Q184.01-25.33 183.89-26.09L183.89-26.09L183.89-26.09Q183.77-26.84 183.49-27.45L183.49-27.45L183.49-27.45Q182.88-28.72 181.54-28.72L181.54-28.72L181.54-28.72Q180.20-28.72 178.72-27.28L178.72-27.28L178.72-27.28Q177.24-25.85 176.06-23.50L176.06-23.50L176.06-23.50Q173.48-18.24 173.48-11.89L173.48-11.89L173.48-11.89Q173.48-8.98 174.61-6.91L174.61-6.91L174.61-6.91Q175.83-4.65 177.99-4.65L177.99-4.65L177.99-4.65Q178.74-4.65 179.42-5.03L179.42-5.03L179.42-5.03Q180.10-5.41 180.39-5.69L180.39-5.69L181.89-15.13ZM203.93 0.94L203.93 0.94L203.93 0.94Q193.59 0.94 193.59-8.79L193.59-8.79L193.59-8.79Q193.59-15.70 197.40-20.16L197.40-20.16L197.40-20.16Q201.44-24.91 208.44-24.91L208.44-24.91L208.44-24.91Q213.52-24.91 216.11-22.56L216.11-22.56L216.11-22.56Q218.69-20.21 218.69-15.28L218.69-15.28L218.69-15.28Q218.69-7.75 214.65-3.38L214.65-3.38L214.65-3.38Q210.70 0.94 203.93 0.94ZM205.16-19.50L205.16-19.50L205.16-19.50Q204.59-18.24 204.14-16.33L204.14-16.33L204.14-16.33Q203.70-14.43 203.13-11.42L203.13-11.42L203.13-11.42Q202.57-8.41 202.57-4.70L202.57-4.70L202.57-4.70Q202.57-3.48 202.97-2.68L202.97-2.68L202.97-2.68Q203.37-1.88 204.45-1.88L204.45-1.88L204.45-1.88Q205.53-1.88 206.21-2.40L206.21-2.40L206.21-2.40Q206.89-2.91 207.41-4.14L207.41-4.14L207.41-4.14Q208.35-6.30 209.10-10.32L209.10-10.32L209.10-10.32Q209.86-14.34 209.93-16.07L209.93-16.07L209.93-16.07Q210.00-17.81 210.00-19.11L210.00-19.11L210.00-19.11Q210.00-20.40 209.62-21.24L209.62-21.24L209.62-21.24Q209.24-22.09 208.19-22.09L208.19-22.09L208.19-22.09Q207.13-22.09 206.42-21.43L206.42-21.43L206.42-21.43Q205.72-20.77 205.16-19.50ZM241.35 0.94L241.35 0.94L241.35 0.94Q235.66 0.94 235.66-3.48L235.66-3.48L235.66-3.48Q235.71-4.70 236.08-6.77L236.08-6.77L236.93-11.09L236.93-11.09Q238.20-17.20 238.20-18.57L238.20-18.57L238.20-18.57Q238.20-21.29 236.60-21.29L236.60-21.29L236.60-21.29Q233.92-21.29 232.51-14.29L232.51-14.29L229.74 0L220.29 0.94L225.18-24.02L232.89-24.91L232.13-20.30L232.13-20.30Q234.34-24.91 241.11-24.91L241.11-24.91L241.11-24.91Q244.40-24.91 245.79-23.52L245.79-23.52L245.79-23.52Q247.17-22.14 247.17-19.04L247.17-19.04L247.17-19.04Q247.17-16.12 245.67-9.31L245.67-9.31L245.67-9.31Q244.96-6.25 244.96-5.10L244.96-5.10L244.96-5.10Q244.96-3.95 245.60-3.29L245.60-3.29L245.60-3.29Q246.23-2.63 247.17-2.54L247.17-2.54L247.17-2.54Q246.70-0.94 245.08 0L245.08 0L245.08 0Q243.46 0.94 241.35 0.94ZM265.74-24.91L265.74-24.91L265.74-24.91Q267.43-24.91 268.75-24.53L268.75-24.53L268.75-24.53Q268.79-24.72 268.89-25.24L268.89-25.24L269.12-26.70L269.12-26.70Q269.31-27.64 269.59-29.19L269.59-29.19L270.34-32.90L279.70-33.84L274.48-6.58L274.48-6.58Q274.43-6.30 274.43-5.83L274.43-5.83L274.43-5.08L274.43-5.08Q274.43-4.04 274.95-3.27L274.95-3.27L274.95-3.27Q275.47-2.49 276.31-2.49L276.31-2.49L276.31-2.49Q275.37-0.28 272.51 0.66L272.51 0.66L272.51 0.66Q271.52 0.94 270.13 0.94L270.13 0.94L270.13 0.94Q268.75 0.94 267.48 0.21L267.48 0.21L267.48 0.21Q266.21-0.52 265.83-1.74L265.83-1.74L265.83-1.74Q265.08-0.52 263.58 0.21L263.58 0.21L263.58 0.21Q262.07 0.94 259.89 0.94L259.89 0.94L259.89 0.94Q257.70 0.94 255.89 0.38L255.89 0.38L255.89 0.38Q254.08-0.19 252.95-1.41L252.95-1.41L252.95-1.41Q250.89-3.81 250.89-9.26L250.89-9.26L250.89-9.26Q250.89-16.31 255.02-20.59L255.02-20.59L255.02-20.59Q259.16-24.91 265.74-24.91ZM265.41-22.09L265.41-22.09L265.41-22.09Q263.67-22.09 262.73-20.21L262.73-20.21L262.73-20.21Q261.79-18.33 260.83-13.68L260.83-13.68L260.83-13.68Q259.86-9.02 259.86-4.84L259.86-4.84L259.86-4.84Q259.86-1.97 261.56-1.97L261.56-1.97L261.56-1.97Q263.06-1.97 264.12-3.48L264.12-3.48L264.12-3.48Q265.17-4.98 265.60-7.47L265.60-7.47L268.13-21.24L268.13-21.24Q267.15-22.09 265.41-22.09ZM282.35-1.41L282.35-1.41L282.35-1.41Q281.25-2.63 280.75-4.56L280.75-4.56L280.75-4.56Q280.26-6.49 280.26-9.63L280.26-9.63L280.26-9.63Q280.26-12.78 281.34-15.65L281.34-15.65L281.34-15.65Q282.42-18.52 284.40-20.59L284.40-20.59L284.40-20.59Q288.44-24.91 295.11-24.91L295.11-24.91L295.11-24.91Q297.51-24.91 299.25-24.11L299.25-24.11L307.29-24.91L303.81-6.58L303.81-6.58Q303.67-6.02 303.67-4.98L303.67-4.98L303.67-4.98Q303.67-3.95 304.30-3.29L304.30-3.29L304.30-3.29Q304.94-2.63 305.88-2.54L305.88-2.54L305.88-2.54Q305.41-0.94 303.69 0L303.69 0L303.69 0Q301.98 0.94 300.05 0.94L300.05 0.94L300.05 0.94Q298.12 0.94 296.83 0.21L296.83 0.21L296.83 0.21Q295.54-0.52 295.16-1.74L295.16-1.74L295.16-1.74Q294.41-0.56 292.81 0.19L292.81 0.19L292.81 0.19Q291.21 0.94 289.07 0.94L289.07 0.94L289.07 0.94Q286.94 0.94 285.20 0.38L285.20 0.38L285.20 0.38Q283.46-0.19 282.35-1.41ZM292.27-20.49L292.27-20.49L292.27-20.49Q291.73-19.65 291.26-18.21L291.26-18.21L291.26-18.21Q290.79-16.78 290.01-12.95L290.01-12.95L290.01-12.95Q289.24-9.12 289.24-6.39L289.24-6.39L289.24-6.39Q289.24-3.67 289.66-2.87L289.66-2.87L289.66-2.87Q290.08-2.07 290.84-2.07L290.84-2.07L290.84-2.07Q292.34-2.07 293.44-3.50L293.44-3.50L293.44-3.50Q294.55-4.93 294.97-7.47L294.97-7.47L297.46-21.24L297.46-21.24Q296.48-22.09 295.32-22.09L295.32-22.09L295.32-22.09Q294.17-22.09 293.49-21.71L293.49-21.71L293.49-21.71Q292.81-21.34 292.27-20.49ZM321.06-2.58L321.06-2.58L321.06-2.58Q319.60 0.94 314.95 0.94L314.95 0.94L314.95 0.94Q312.60 0.94 311.09-0.70L311.09-0.70L311.09-0.70Q309.87-2.07 309.87-3.62L309.87-3.62L309.87-3.62Q309.87-7.14 311.52-14.85L311.52-14.85L314.95-32.90L324.49-33.84L319.93-10.06L319.93-10.06Q319.13-6.58 319.13-5.36L319.13-5.36L319.13-5.36Q319.13-2.68 321.06-2.58Z" fill="url(#editing-outline-gradient)"></path></g></g><style>text {
  font-size: 64px;
  font-family: Arial Black;
  dominant-baseline: central;
  text-anchor: middle;
}</style></svg>